# xmcd
#
# Track frame offsets:
# 150
# 19751
# 37853
# 72245
# 91416
# 107918
# 124897
# 143591
# 160368
# 174691
# 193880
# 217149
# 230279
# 252057
#
# Disc length: 3603 seconds
#
# Revision: 0
# Processed by: cddbd v1.4PL0 Copyright (c) Steve Scherf et al.
# Submitted via: Audion 3.0.2 (http://www.panic.com/audion/)
#
DISCID=c50e110e
DTITLE=Various Artist - mtvU2
DYEAR=1900
DGENRE=
TTITLE0=atmosphere - trying to find a balance
TTITLE1=Jack johnson - taylor
TTITLE2=switchfoot - meant to live
TTITLE3=bubba sparxx - back in the mud
TTITLE4=story of the year - anthem of our dying day
TTITLE5=Guster - careful
TTITLE6=Jin - Learn Chinese
TTITLE7=Starsailor - silence is easy
TTITLE8=The distillers - drain the blood
TTITLE9=Trapt - echoes 
TTITLE10=dialated peoples - marathon 
TTITLE11=katy rose - overdrive
TTITLE12=Melissa Auf Der maur- followed the waves
TTITLE13=jet - cold hard bitch
EXTD=
EXTT0=
EXTT1=
EXTT2=
EXTT3=
EXTT4=
EXTT5=
EXTT6=
EXTT7=
EXTT8=
EXTT9=
EXTT10=
EXTT11=
EXTT12=
EXTT13=
PLAYORDER=
